<?xml version="1.0" standalone="no"?>
<!DOCTYPE svg PUBLIC "-//W3C//DTD SVG 20010904//EN"
 "http://www.w3.org/TR/2001/REC-SVG-20010904/DTD/svg10.dtd">
<svg version="1.0" xmlns="http://www.w3.org/2000/svg"
 width="1080.000000pt" height="1080.000000pt" viewBox="0 0 1080.000000 1080.000000"
 preserveAspectRatio="xMidYMid meet">
<metadata>
Created by potrace 1.10, written by Peter Selinger 2001-2011
</metadata>
<g transform="translate(0.000000,1080.000000) scale(0.100000,-0.100000)"
fill="#000000" stroke="none">
<path d="M2066 9879 c-206 -27 -458 -128 -614 -246 l-63 -48 -2 -753 -2 -752
45 0 45 1 289 404 c158 223 317 443 352 490 l63 85 -77 0 -77 0 -150 -217
c-82 -119 -201 -289 -262 -376 l-113 -160 0 611 0 610 75 46 c214 134 431 196
687 196 467 0 887 -261 1093 -678 79 -161 114 -302 122 -492 18 -454 -212
-873 -609 -1106 -77 -46 -235 -114 -263 -114 -12 0 -15 -14 -15 -64 l0 -65 83
28 c208 71 368 171 527 331 220 219 339 459 385 775 48 330 -50 698 -260 977
-200 266 -514 452 -860 512 -92 15 -299 18 -399 5z m455 -58 c256 -57 464
-168 645 -343 194 -187 323 -431 368 -693 21 -123 22 -356 1 -464 -50 -258
-162 -477 -339 -659 -141 -146 -273 -238 -442 -308 -89 -37 -114 -41 -114 -21
0 7 34 25 75 41 330 126 627 437 737 771 150 457 41 946 -286 1283 -102 105
-183 165 -316 235 -216 114 -386 152 -640 144 -140 -4 -183 -10 -282 -35 -172
-44 -411 -164 -452 -227 -14 -22 -16 -88 -16 -619 0 -558 1 -595 18 -616 40
-49 44 -44 361 413 171 247 212 297 237 297 17 0 -13 -49 -129 -210 -70 -96
-207 -287 -305 -425 -98 -137 -186 -251 -195 -253 -16 -3 -17 48 -17 717 l0
720 73 49 c181 123 397 201 622 226 84 9 311 -4 396 -23z"/>
<path d="M1224 9413 c-297 -349 -390 -836 -244 -1274 74 -224 158 -359 329
-530 124 -124 201 -180 358 -258 197 -98 356 -135 583 -136 80 0 165 3 190 8
l45 7 -3 630 -2 630 235 0 236 0 -3 -205 -3 -205 57 0 58 0 0 490 0 490 -57 0
-58 0 3 -235 3 -235 -291 0 -290 0 2 -630 3 -630 -121 0 c-67 0 -160 7 -206
15 -590 103 -1018 611 -1018 1209 0 252 60 455 200 676 45 72 48 79 53 163 3
48 3 87 2 87 -2 0 -30 -30 -61 -67z m16 -76 c0 -8 -26 -56 -57 -108 -96 -160
-147 -291 -179 -464 -22 -121 -15 -362 15 -487 43 -182 111 -333 211 -467 247
-333 612 -521 1009 -521 123 0 128 1 151 25 l24 25 4 605 5 605 253 0 c253 0
253 0 281 24 l28 24 3 207 c2 154 6 205 15 202 18 -6 17 -869 0 -874 -10 -4
-13 34 -13 165 0 169 0 171 -26 201 l-26 31 -223 0 -223 0 -26 -31 -26 -31 0
-599 c0 -562 -1 -600 -17 -607 -10 -4 -85 -7 -168 -6 -279 2 -501 71 -745 232
-101 67 -246 209 -319 312 -261 370 -311 855 -133 1269 72 165 182 327 182
268z"/>
<path d="M2370 8880 l0 -181 55 3 56 3 2 178 2 177 -57 0 -58 0 0 -180z m70 0
c0 -73 -4 -120 -10 -120 -6 0 -10 47 -10 120 0 73 4 120 10 120 6 0 10 -47 10
-120z"/>
<path d="M1844 8437 l-31 -42 106 -157 106 -157 73 -1 74 0 -32 43 c-17 23
-81 113 -143 199 -62 87 -114 157 -117 157 -3 0 -19 -19 -36 -42z m144 -169
c62 -89 89 -135 82 -142 -7 -7 -15 -5 -24 4 -21 23 -176 252 -176 262 0 29 37
-10 118 -124z"/>
</g>
</svg>
